<svg width="29" height="27" viewBox="0 0 29 27" fill="none" xmlns="http://www.w3.org/2000/svg">
<g id="Group 31">
<g id="Group">
<path id="Vector" d="M23.8119 0.518433H5.18805C2.32736 0.518433 0 2.61943 0 5.20187V22.0144C0 24.5968 2.32736 26.6978 5.18805 26.6978H23.812C26.6726 26.6978 29 24.5968 29 22.0143V5.20187C29 2.61943 26.6726 0.518433 23.8119 0.518433ZM27.3008 22.0143C27.3008 23.7509 25.7357 25.1638 23.8119 25.1638H5.18805C3.26431 25.1638 1.69922 23.7509 1.69922 22.0143V5.20187C1.69922 3.46524 3.26431 2.05238 5.18805 2.05238H23.812C25.7357 2.05238 27.3008 3.46524 27.3008 5.20187V22.0143Z" fill="black"/>
<path id="Vector_2" d="M24.5103 6.26906H11.5701C11.2144 5.31516 10.2149 4.62598 9.03986 4.62598C7.86479 4.62598 6.86537 5.31516 6.50961 6.26906H4.48975C4.02054 6.26906 3.64014 6.61248 3.64014 7.03607C3.64014 7.45967 4.02054 7.80308 4.48975 7.80308H6.50967C6.86543 8.75698 7.86485 9.44617 9.03992 9.44617C10.215 9.44617 11.2144 8.75698 11.5702 7.80308H24.5103C24.9796 7.80308 25.36 7.45967 25.36 7.03607C25.36 6.61248 24.9796 6.26906 24.5103 6.26906ZM9.03986 7.91215C8.50478 7.91215 8.06943 7.51913 8.06943 7.03607C8.06943 6.55301 8.50478 6.15999 9.03986 6.15999C9.57494 6.15999 10.0103 6.55301 10.0103 7.03607C10.0103 7.51913 9.57494 7.91215 9.03986 7.91215Z" fill="black"/>
<path id="Vector_3" d="M24.5103 12.8412H22.4904C22.1346 11.8873 21.1351 11.1981 19.9601 11.1981C18.7851 11.1981 17.7857 11.8873 17.4299 12.8412H4.48975C4.02054 12.8412 3.64014 13.1846 3.64014 13.6082C3.64014 14.0317 4.02054 14.3751 4.48975 14.3751H17.4299C17.7857 15.329 18.7852 16.0182 19.9602 16.0182C21.1352 16.0182 22.1347 15.329 22.4904 14.3751H24.5103C24.9796 14.3751 25.36 14.0317 25.36 13.6082C25.36 13.1846 24.9796 12.8412 24.5103 12.8412ZM19.9602 14.4842C19.4251 14.4842 18.9898 14.0912 18.9898 13.6082C18.9898 13.1251 19.4251 12.7321 19.9602 12.7321C20.4953 12.7321 20.9306 13.1251 20.9306 13.6082C20.9306 14.0912 20.4953 14.4842 19.9602 14.4842Z" fill="black"/>
<path id="Vector_4" d="M24.5103 19.4133H15.2102C14.8545 18.4594 13.8551 17.7703 12.68 17.7703C11.5049 17.7703 10.5055 18.4594 10.1497 19.4133H4.48975C4.02054 19.4133 3.64014 19.7567 3.64014 20.1802C3.64014 20.6038 4.02054 20.9472 4.48975 20.9472H10.1497C10.5055 21.9011 11.5049 22.5902 12.68 22.5902C13.8551 22.5902 14.8545 21.9011 15.2102 20.9472H24.5103C24.9796 20.9472 25.36 20.6038 25.36 20.1802C25.36 19.7567 24.9796 19.4133 24.5103 19.4133ZM12.68 21.0563C12.1449 21.0563 11.7096 20.6633 11.7096 20.1803C11.7096 19.6973 12.1449 19.3043 12.68 19.3043C13.2151 19.3043 13.6504 19.6972 13.6504 20.1802C13.6504 20.6633 13.2151 21.0563 12.68 21.0563Z" fill="black"/>
</g>
</g>
</svg>
