<svg width="15" height="15" viewBox="0 0 15 15" fill="none" xmlns="http://www.w3.org/2000/svg">
<g id="sort" clip-path="url(#clip0_0_147)">
<g id="Group">
<g id="Group_2">
<path id="Vector" d="M3.64807 14.3734V1.53464L5.90435 3.79092C5.97793 3.86449 6.07296 3.90128 6.17106 3.90128C6.26916 3.90128 6.36419 3.86449 6.43777 3.79092C6.58492 3.64377 6.58492 3.40772 6.43777 3.26057L3.54077 0.363576C3.39976 0.222558 3.15144 0.222558 3.01042 0.363576L0.110362 3.26057C-0.0367873 3.40772 -0.0367873 3.64377 0.110362 3.79092C0.257511 3.93807 0.493562 3.93807 0.640711 3.79092L2.897 1.53464V14.3734C2.897 14.5818 3.0656 14.7505 3.27407 14.7505C3.47946 14.7474 3.64807 14.5788 3.64807 14.3734Z" fill="black"/>
<path id="Vector_2" d="M11.4592 14.6367C11.5328 14.7103 11.6278 14.7471 11.7259 14.7471C11.824 14.7471 11.919 14.7103 11.9926 14.6367L14.8896 11.7397C15.0368 11.5926 15.0368 11.3565 14.8896 11.2093C14.7425 11.0622 14.5064 11.0622 14.3593 11.2093L12.103 13.4656V0.626886C12.103 0.418425 11.9344 0.249817 11.7259 0.249817C11.5174 0.249817 11.3488 0.418425 11.3488 0.626886V13.4656L9.09561 11.2093C8.94846 11.0622 8.71241 11.0622 8.56526 11.2093C8.41811 11.3565 8.41811 11.5926 8.56526 11.7397L11.4592 14.6367Z" fill="black"/>
</g>
</g>
</g>
<defs>
<clipPath id="clip0_0_147">
<rect width="15" height="15" fill="white"/>
</clipPath>
</defs>
</svg>
